<?xml version="1.0" encoding="UTF-8"?>
<svg version="1.1" xmlns="http://www.w3.org/2000/svg" width="208" height="298">
<path d="M0 0 C22.82656282 17.71517262 37.1622597 41.94012043 41.39306641 70.53027344 C44.66106832 98.35912532 38.11341322 125.64564696 21.52734375 148.34082031 C15.68233316 155.66235797 9.3146845 162.57432811 1.91015625 168.33691406 C-5.23766111 174.44234139 -5.85418979 182.93069823 -6.58984375 191.78613281 C-7.87997797 198.44938287 -11.8717394 202.49061866 -17.27734375 206.33691406 C-25.10777761 210.33912239 -33.31883421 209.79168035 -41.89453125 209.77050781 C-43.51824154 209.77507647 -45.14194991 209.78038407 -46.76565552 209.78639221 C-50.15976849 209.79529772 -53.55364585 209.79293015 -56.94775391 209.78295898 C-61.27391816 209.77148132 -65.59926466 209.79167491 -69.92532158 209.82087612 C-73.27646966 209.83932056 -76.62742483 209.83892921 -79.97861099 209.8332386 C-81.57244131 209.83308635 -83.16628552 209.83905069 -84.76006699 209.85153008 C-94.57007899 209.9175247 -103.67223984 209.77428799 -111.71484375 203.40722656 C-112.23046875 202.76527344 -112.74609375 202.12332031 -113.27734375 201.46191406 C-113.81359375 200.82511719 -114.34984375 200.18832031 -114.90234375 199.53222656 C-118.33709938 194.04832695 -118.80003189 188.04276882 -119.51953125 181.75097656 C-121.3218005 173.63147488 -125.27992959 168.8647399 -131.46484375 163.52441406 C-150.98187868 145.90415135 -164.88795428 121.62019525 -166.41943359 94.85351562 C-167.54918806 62.58956324 -159.16205002 35.34377367 -137.27734375 11.33691406 C-136.6946875 10.67175781 -136.11203125 10.00660156 -135.51171875 9.32128906 C-101.25334114 -27.70544229 -39.20615805 -29.27536747 0 0 Z M-112.27734375 13.33691406 C-113.19 14.00464844 -114.10265625 14.67238281 -115.04296875 15.36035156 C-133.5514502 29.68115983 -145.13793699 50.49271334 -148.61328125 73.56738281 C-151.45969429 95.91557171 -145.44040159 119.72263168 -131.7734375 137.74316406 C-126.63510079 144.16892905 -120.82734234 149.68080546 -114.71459961 155.16308594 C-104.99392443 164.00033152 -102.37042237 173.86470243 -100.8046875 186.61425781 C-100.51453597 189.47288618 -100.51453597 189.47288618 -98.27734375 191.33691406 C-95.1815389 191.66598747 -95.1815389 191.66598747 -91.48852539 191.64331055 C-90.79079514 191.65163406 -90.09306488 191.65995758 -89.37419128 191.66853333 C-87.06190453 191.69267881 -84.74989954 191.70141039 -82.4375 191.70800781 C-80.83328667 191.71697008 -79.22907422 191.72609185 -77.62486267 191.73536682 C-74.25973476 191.75187129 -70.89470652 191.75955967 -67.52954102 191.76245117 C-63.21363343 191.76783932 -58.89865993 191.80552968 -54.5830164 191.85119534 C-51.26904361 191.88091037 -47.95529738 191.88817349 -44.64120293 191.88917732 C-43.04992833 191.89339008 -41.4586537 191.90586662 -39.86750984 191.92669487 C-37.64282283 191.9534996 -35.42032167 191.94881946 -33.19555664 191.9362793 C-31.92917862 191.94134995 -30.6628006 191.94642059 -29.35804749 191.9516449 C-26.10565725 191.64570358 -26.10565725 191.64570358 -24.36595154 188.95399475 C-23.21639287 186.19038437 -22.94724507 184.2513716 -22.90234375 181.27441406 C-21.8444527 166.69902626 -13.39823565 157.75643687 -2.83984375 148.58691406 C13.26365566 134.15007054 22.97562371 112.82432412 24.6328125 91.32128906 C24.66246094 90.66644531 24.69210938 90.01160156 24.72265625 89.33691406 C24.76261719 88.66144531 24.80257812 87.98597656 24.84375 87.29003906 C25.51286322 65.72097757 17.58887873 44.65545974 3.72265625 28.33691406 C3.15289062 27.61117187 2.583125 26.88542969 1.99609375 26.13769531 C-11.07286618 10.20468672 -31.77094238 0.31501817 -51.9375 -2.34667969 C-73.31023738 -4.37146533 -94.86381169 0.51422228 -112.27734375 13.33691406 Z " fill="#FFFFFF" transform="translate(166.27734375,19.6630859375)"/>
<path d="M0 0 C1.19092758 -0.01051392 1.19092758 -0.01051392 2.40591431 -0.02124023 C5.02747689 -0.03882973 7.6479579 -0.02719461 10.26953125 -0.01367188 C12.09269416 -0.01636653 13.91585568 -0.02024872 15.73901367 -0.02526855 C19.55889578 -0.03116488 23.3784036 -0.02259641 27.19824219 -0.00390625 C32.09457694 0.01888349 36.9900347 0.00576111 41.88633728 -0.01819611 C45.65074267 -0.03265052 49.41494015 -0.02804976 53.17935181 -0.01768494 C54.98467106 -0.01501666 56.79000919 -0.01829097 58.5953064 -0.02760315 C61.11873367 -0.03776305 63.64074099 -0.02227675 66.1640625 0 C67.28320541 -0.01214539 67.28320541 -0.01214539 68.42495728 -0.02453613 C71.89840995 0.03227018 73.75399336 0.26538263 76.54455566 2.4107666 C78.33906805 4.86979711 78.5960786 6.12474164 78.61328125 9.14257812 C78.62101562 10.4496875 78.62101562 10.4496875 78.62890625 11.78320312 C78.6134375 12.68554688 78.59796875 13.58789062 78.58203125 14.51757812 C78.60523438 15.87109375 78.60523438 15.87109375 78.62890625 17.25195312 C78.62375 18.12335938 78.61859375 18.99476562 78.61328125 19.89257812 C78.60876953 20.6840625 78.60425781 21.47554687 78.59960938 22.29101562 C77.87189848 25.4215455 76.580236 26.52294058 74.08203125 28.51757812 C71.14941406 28.97167969 71.14941406 28.97167969 67.78515625 28.90820312 C66.57988281 28.8953125 65.37460938 28.88242188 64.1328125 28.86914062 C62.87855469 28.835625 61.62429687 28.80210938 60.33203125 28.76757812 C59.06230469 28.74953125 57.79257813 28.73148438 56.484375 28.71289062 C53.34950048 28.66574965 50.21614565 28.59995477 47.08203125 28.51757812 C47.0909137 29.52346985 47.09979614 30.52936157 47.10894775 31.56573486 C47.19000644 41.04162239 47.24998355 50.51743966 47.28927994 59.99359512 C47.31016181 64.86550588 47.33849039 69.73713694 47.38378906 74.60888672 C47.42722544 79.30972801 47.45116384 84.01030013 47.46154022 88.7113266 C47.46893557 90.50552356 47.48337692 92.29970566 47.50495148 94.09378815 C47.53395662 96.6054934 47.53798854 99.11608411 47.53613281 101.62792969 C47.55770447 102.74247276 47.55770447 102.74247276 47.57971191 103.87953186 C47.55191119 107.35317151 47.33686584 109.18565016 45.19281006 111.97833252 C42.73125744 113.7733733 41.47703754 114.03161311 38.45703125 114.04882812 C37.585625 114.05398437 36.71421875 114.05914062 35.81640625 114.06445312 C34.9140625 114.04898438 34.01171875 114.03351563 33.08203125 114.01757812 C31.72851562 114.04078125 31.72851562 114.04078125 30.34765625 114.06445312 C29.47625 114.05929688 28.60484375 114.05414063 27.70703125 114.04882812 C26.91554687 114.04431641 26.1240625 114.03980469 25.30859375 114.03515625 C22.12100553 113.2941818 21.07365512 112.11171438 19.08203125 109.51757812 C18.70781818 106.75107941 18.57448549 104.38923179 18.62792969 101.62792969 C18.62734558 100.83730637 18.62676147 100.04668304 18.62615967 99.23210144 C18.62894226 96.6236858 18.66004142 94.01641866 18.69140625 91.40820312 C18.69886804 89.5978864 18.70456127 87.78756158 18.70855713 85.97723389 C18.72381837 81.21606078 18.76310434 76.45537697 18.80737305 71.69439697 C18.84831522 66.83474344 18.86656589 61.97501072 18.88671875 57.11523438 C18.92959816 47.5824675 18.9978554 38.05006352 19.08203125 28.51757812 C17.88658691 28.54899902 17.88658691 28.54899902 16.66699219 28.58105469 C13.05546691 28.66421135 9.44414301 28.71623847 5.83203125 28.76757812 C3.95064453 28.81785156 3.95064453 28.81785156 2.03125 28.86914062 C0.22333984 28.88847656 0.22333984 28.88847656 -1.62109375 28.90820312 C-2.73129883 28.92915039 -3.84150391 28.95009766 -4.98535156 28.97167969 C-8.57896087 28.4152267 -9.71967945 27.35431286 -11.91796875 24.51757812 C-12.43554688 22.29101562 -12.43554688 22.29101562 -12.44921875 19.89257812 C-12.454375 19.02117187 -12.45953125 18.14976563 -12.46484375 17.25195312 C-12.449375 16.34960938 -12.43390625 15.44726562 -12.41796875 14.51757812 C-12.4334375 13.61523438 -12.44890625 12.71289062 -12.46484375 11.78320312 C-12.45710938 10.47609375 -12.45710938 10.47609375 -12.44921875 9.14257812 C-12.44470703 8.35109375 -12.44019531 7.55960937 -12.43554688 6.74414062 C-10.91559022 0.20545917 -5.77693641 -0.06269362 0 0 Z " fill="#FFFFFF" transform="translate(70.91796875,57.482421875)"/>
<path d="M0 0 C4.32037833 2.46878762 6.33841056 5.9236964 8.796875 10.09375 C10.25069771 12.39720935 11.96848391 14.19420792 14 16 C17.21476792 15.23956286 17.21476792 15.23956286 19.0625 12.3125 C24.01653416 6.10124871 31.40966347 2.75223726 39 1 C41.67533924 0.79191806 44.20606549 0.66499905 46.875 0.6875 C47.57681396 0.69313965 48.27862793 0.6987793 49.00170898 0.70458984 C57.27506758 0.89781663 63.48967034 2.58851547 69.55859375 8.34765625 C73.95807669 13.39096597 74.55538902 18.85170912 74.34375 25.2890625 C73.59949666 31.158515 71.06602594 35.27659631 66.8125 39.3125 C59.65867183 44.76857376 51.99969911 45.44970783 43.25 45.25 C42.33089844 45.24484375 41.41179687 45.2396875 40.46484375 45.234375 C36.16026026 45.18453901 32.21586845 44.9329128 28 44 C29.13332055 46.09989566 29.13332055 46.09989566 31 48 C33.57306272 48.40926931 33.57306272 48.40926931 36.375 48.125 C41.29845433 47.81304559 44.60212952 48.5116666 48.8125 51.125 C50.79262458 54.25151249 50.73928163 57.48841227 50 61 C47.30124472 64.52337494 45.31850638 66.22407962 41 67 C32.58350659 67.68922466 25.36017476 66.8098904 18.1875 62.1875 C11.70311976 55.70311976 8.82871894 47.44376384 8.8125 38.3125 C8.874375 37.219375 8.93625 36.12625 9 35 C8.41863281 34.731875 7.83726563 34.46375 7.23828125 34.1875 C-1.3896622 29.61002215 -8.14722415 20.86319327 -12 12 C-12.55807665 7.615112 -12.50474031 5.71887256 -9.9375 2.0625 C-6.2404927 -0.53327109 -4.43355658 -0.71253588 0 0 Z M36 21 C33.52001256 23.51062851 33.52001256 23.51062851 32 26 C34.64322542 28.64322542 40.36202403 28.088218 44 28.1875 C47.95219609 28.14890434 51.26149376 27.24616875 55 26 C55.67958603 23.60280568 55.67958603 23.60280568 56 21 C53.14335041 18.14335041 50.59884552 18.28477096 46.671875 17.97265625 C42.65353363 18.01377963 39.43124824 18.90488298 36 21 Z " fill="#FFFFFF" transform="translate(71,231)"/>
</svg>
